<svg width="28" height="29" viewBox="0 0 28 29" fill="none" xmlns="http://www.w3.org/2000/svg">
<path d="M0 2.08V10.5C0 11.6488 0.93125 12.58 2.08 12.58H10.5C11.6488 12.58 12.58 11.6488 12.58 10.5V2.08C12.58 0.931248 11.6488 0 10.5 0H2.08C0.931248 0 0 0.93125 0 2.08Z" fill="white"/>
<path d="M14.459 10.5V2.08C14.459 0.93125 15.3902 0 16.539 0H24.959C26.1077 0 27.039 0.931248 27.039 2.08V10.5C27.039 11.6488 26.1077 12.58 24.959 12.58H16.539C15.3902 12.58 14.459 11.6488 14.459 10.5Z" fill="white"/>
<path d="M14.459 26V17.58C14.459 16.4312 15.3902 15.5 16.539 15.5H24.959C26.1077 15.5 27.039 16.4312 27.039 17.58V26C27.039 27.1488 26.1077 28.08 24.959 28.08H16.539C15.3902 28.08 14.459 27.1488 14.459 26Z" fill="white"/>
<path d="M0 26V17.58C0 16.4312 0.931248 15.5 2.08 15.5H10.5C11.6488 15.5 12.58 16.4312 12.58 17.58V26C12.58 27.1488 11.6488 28.08 10.5 28.08H2.08C0.93125 28.08 0 27.1488 0 26Z" fill="white"/>
</svg>
