<svg width="35" height="32" viewBox="0 0 35 32" fill="none" xmlns="http://www.w3.org/2000/svg">
<g opacity="0.6" clip-path="url(#clip0_440_12)">
<path d="M26.5 18.2002H24.5L24.473 22.1808L20.5 22.2002V24.2002H24.5V28.2002H26.5V24.2002H30.5V22.2002H26.5V18.2002Z" fill="#C6C6C6"/>
<path d="M9.85039 3.54061C11.1425 3.547 12.4046 3.92324 13.4825 4.62331C14.5604 5.32339 15.4072 6.31694 15.9194 7.48242H19.0984C19.604 6.3157 20.4469 5.32035 21.5227 4.61969C22.5984 3.91902 23.8597 3.54384 25.1504 3.54061C25.9368 3.52231 26.7189 3.66102 27.4492 3.94833C28.1795 4.23563 28.8429 4.66557 29.3991 5.2121C29.9554 5.75863 30.393 6.41039 30.6854 7.12792C30.9778 7.84545 31.119 8.61382 31.1004 9.38652C30.9765 11.5319 30.1541 13.5813 28.7544 15.2324L31.6274 17.0363C33.3956 14.8553 34.4029 12.1733 34.5004 9.38652C34.5117 8.17704 34.2776 6.97746 33.8118 5.85788C33.3459 4.7383 32.6576 3.72116 31.7871 2.86589C30.9166 2.01062 29.8814 1.33437 28.7419 0.87666C27.6023 0.418947 26.3814 0.188946 25.1504 0.200094C23.6956 0.212296 22.2604 0.530107 20.9409 1.13219C19.6215 1.73428 18.4484 2.60671 17.5004 3.69093C16.5524 2.60671 15.3793 1.73428 14.0599 1.13219C12.7404 0.530107 11.3051 0.212296 9.85039 0.200094C8.61938 0.188946 7.39844 0.418947 6.25892 0.87666C5.1194 1.33437 4.08415 2.01062 3.21366 2.86589C2.34316 3.72116 1.65487 4.7383 1.18901 5.85788C0.723144 6.97746 0.489047 8.17704 0.500394 9.38652C0.500394 15.7001 6.28039 20.8445 15.0354 28.5945L17.9084 31.1333L18.0104 28.8951V26.7405L17.5004 26.3396L17.3304 26.1726C9.23839 18.9738 3.90039 14.2136 3.90039 9.38652C3.88177 8.61382 4.02295 7.84545 4.31537 7.12792C4.60779 6.41039 5.04538 5.75863 5.60164 5.2121C6.15791 4.66557 6.82127 4.23563 7.55158 3.94833C8.28189 3.66102 9.06394 3.52231 9.85039 3.54061Z" fill="#FEFCFE"/>
</g>
<defs>
<clipPath id="clip0_440_12">
<rect width="34" height="31" fill="white" transform="translate(0.5 0.200195)"/>
</clipPath>
</defs>
</svg>
