<svg width="35" height="32" viewBox="0 0 35 32" fill="none" xmlns="http://www.w3.org/2000/svg">
<g opacity="0.6">
<path d="M24.5897 17.1502C25.6768 17.1502 26.6334 16.5557 27.1262 15.6567L32.3153 6.2462C32.8516 5.2892 32.1559 4.1002 31.0543 4.1002H9.60223L8.23974 1.2002H3.5V4.1002H6.39892L11.617 15.1057L9.66021 18.6437C8.60211 20.5867 9.99359 22.9502 12.1968 22.9502H29.5903V20.0502H12.1968L13.7912 17.1502H24.5897ZM10.9792 7.0002H28.5902L24.5897 14.2502H14.4144L10.9792 7.0002ZM12.1968 24.4002C10.6024 24.4002 9.31234 25.7052 9.31234 27.3002C9.31234 28.8952 10.6024 30.2002 12.1968 30.2002C13.7912 30.2002 15.0957 28.8952 15.0957 27.3002C15.0957 25.7052 13.7912 24.4002 12.1968 24.4002ZM26.6914 24.4002C25.097 24.4002 23.807 25.7052 23.807 27.3002C23.807 28.8952 25.097 30.2002 26.6914 30.2002C28.2858 30.2002 29.5903 28.8952 29.5903 27.3002C29.5903 25.7052 28.2858 24.4002 26.6914 24.4002Z" fill="#FEFCFE"/>
</g>
</svg>
