<svg width="28" height="31" viewBox="0 0 28 31" fill="none" xmlns="http://www.w3.org/2000/svg">
<path fill-rule="evenodd" clip-rule="evenodd" d="M2.31996 0.668355C1.76466 0.448535 1.15624 0.777185 0.961009 1.40239C0.765787 2.02761 1.05767 2.71264 1.61297 2.93244L1.98415 3.07938C2.93285 3.45493 3.55633 3.7038 4.0151 3.95726C4.446 4.1953 4.63595 4.38798 4.76108 4.59416C4.88935 4.8055 4.98839 5.09576 5.04428 5.67711C5.10277 6.28544 5.10422 7.07776 5.10422 8.26166V12.4243C5.10422 17.1307 5.19407 18.6838 6.42527 20.146C7.65646 21.6081 9.63802 21.6081 13.6012 21.6081H21.1368C23.355 21.6081 24.4641 21.6081 25.2481 20.8888C26.0321 20.1694 26.2561 18.9464 26.7038 16.5002L27.4141 12.6207C27.9073 9.83822 28.154 8.44701 27.5231 7.52369C26.8923 6.60037 24.7368 6.60038 22.3424 6.60038H7.22517C7.21567 6.16786 7.19764 5.77436 7.16346 5.41884C7.08711 4.62465 6.92167 3.90031 6.52097 3.2401C6.11714 2.57474 5.5802 2.1486 4.95405 1.80269C4.36847 1.47917 3.62436 1.18465 2.74826 0.837888L2.31996 0.668355ZM12.55 11.1999C12.4517 10.5464 11.9015 10.1065 11.3212 10.2172C10.7408 10.3279 10.3501 10.9473 10.4484 11.6007L11.1989 16.5892C11.2973 17.2426 11.8474 17.6826 12.4278 17.5719C13.0082 17.4611 13.3988 16.8418 13.3006 16.1884L12.55 11.1999ZM20.2437 10.2172C19.6633 10.1065 19.1131 10.5464 19.0149 11.1999L18.2643 16.1884C18.166 16.8418 18.5568 17.4611 19.1371 17.5719C19.7175 17.6826 20.2675 17.2426 20.3659 16.5892L21.1165 11.6007C21.2148 10.9473 20.824 10.3279 20.2437 10.2172ZM8.65711 25.8C9.83434 25.8 10.7887 26.8746 10.7887 28.2C10.7887 29.5254 9.83434 30.5999 8.65711 30.5999C7.47988 30.5999 6.52556 29.5254 6.52556 28.2C6.52556 26.8746 7.47988 25.8 8.65711 25.8ZM21.4464 25.8002C22.6236 25.8002 23.578 26.8746 23.578 28.2001C23.578 29.5256 22.6236 30.6001 21.4464 30.6001C20.2692 30.6001 19.3149 29.5256 19.3149 28.2001C19.3149 26.8746 20.2692 25.8002 21.4464 25.8002Z" fill="#DDDDDD"/>
</svg>
