<svg width="35" height="32" viewBox="0 0 35 32" fill="none" xmlns="http://www.w3.org/2000/svg">
<g opacity="0.6" clip-path="url(#clip0_440_18)">
<path d="M32.3734 4.2002H2.60484C2.04091 4.2002 1.50007 4.4223 1.1013 4.81766C0.702539 5.21302 0.478516 5.74923 0.478516 6.30835V25.092C0.478516 25.6512 0.702539 26.1874 1.1013 26.5827C1.50007 26.9781 2.04091 27.2002 2.60484 27.2002H32.3734C32.9374 27.2002 33.4782 26.9781 33.877 26.5827C34.2758 26.1874 34.4998 25.6512 34.4998 25.092V6.30835C34.4998 5.74923 34.2758 5.21302 33.877 4.81766C33.4782 4.4223 32.9374 4.2002 32.3734 4.2002ZM5.58171 10.6512C5.58171 9.9133 5.77307 9.04896 7.21898 9.04896C7.92067 9.04896 9.00509 10.5879 9.06888 11.8106H8.70741C7.19771 11.8106 5.58171 11.0517 5.58171 10.6512ZM11.5354 11.8106H11.1952V11.7052C11.1952 10.6512 12.3009 9.04896 13.0451 9.04896C14.4698 9.04896 14.6611 9.9133 14.6611 10.6512C14.6611 11.0517 13.0451 11.8106 11.5354 11.8106ZM32.3734 12.0215H16.2984C16.6201 11.6366 16.7934 11.151 16.7875 10.6512C16.8221 10.1551 16.749 9.65736 16.5732 9.19163C16.3974 8.72589 16.1229 8.30295 15.7682 7.95132C15.4136 7.59968 14.987 7.32753 14.5172 7.15321C14.0475 6.97889 13.5455 6.90646 13.0451 6.9408C12.3665 6.95681 11.7138 7.20227 11.1952 7.63649V6.30835H32.4585L32.3734 12.0215ZM8.98383 6.30835V7.63649C8.4635 7.20519 7.81187 6.96013 7.13393 6.9408C6.63873 6.91583 6.14381 6.99521 5.68181 7.17371C5.21981 7.35221 4.80122 7.62577 4.45363 7.97636C4.10605 8.32695 3.83736 8.74661 3.66529 9.20766C3.49322 9.66871 3.42168 10.1607 3.45538 10.6512C3.46455 11.1484 3.63616 11.6292 3.94443 12.0215H2.62611V6.30835H8.98383ZM2.60484 14.1296H7.45287L5.32655 16.5962L6.87877 18.0297L9.0051 15.9216V25.1764H2.62611L2.60484 14.1296ZM11.1102 25.092V16.1113L13.1089 18.0297L14.5973 16.5329L12.1946 14.1296H32.3734V25.092H11.1102Z" fill="#FEFCFE"/>
</g>
<defs>
<clipPath id="clip0_440_18">
<rect width="34" height="31" fill="white" transform="translate(0.5 0.200195)"/>
</clipPath>
</defs>
</svg>
