<svg width="23" height="23" viewBox="0 0 23 23" fill="none" xmlns="http://www.w3.org/2000/svg">
<path d="M11.4995 0C5.14894 0 0 4.48914 0 10.0269C0 13.3548 1.8597 16.3033 4.72245 18.127C4.71422 18.156 2.44177 23 2.44177 23C2.44177 23 9.38176 19.8993 9.40098 19.8864C10.0819 19.9969 10.7839 20.0526 11.5005 20.0526C17.8511 20.0526 23 15.5635 23 10.0269C22.9991 4.48914 17.8501 0 11.4995 0ZM5.97903 11.0979C5.47384 11.0979 5.06383 10.6176 5.06383 10.0258C5.06383 9.43287 5.47384 8.95362 5.97903 8.95362C6.48422 8.95362 6.89424 9.43287 6.89424 10.0258C6.89424 10.6176 6.48514 11.0979 5.97903 11.0979ZM9.62063 11.143C9.11544 11.143 8.70542 10.6626 8.70542 10.0708C8.70542 9.4779 9.11544 8.99865 9.62063 8.99865C10.1267 8.99865 10.5358 9.4779 10.5358 10.0708C10.5358 10.6626 10.1267 11.143 9.62063 11.143ZM13.319 11.143C12.8138 11.143 12.4038 10.6626 12.4038 10.0708C12.4038 9.4779 12.8138 8.99865 13.319 8.99865C13.8251 8.99865 14.2342 9.4779 14.2342 10.0708C14.2342 10.6626 13.8251 11.143 13.319 11.143ZM16.9798 11.143C16.4746 11.143 16.0646 10.6626 16.0646 10.0708C16.0646 9.4779 16.4746 8.99865 16.9798 8.99865C17.4859 8.99865 17.895 9.4779 17.895 10.0708C17.895 10.6626 17.4859 11.143 16.9798 11.143Z" fill="#DDDDDD"/>
</svg>
