<svg width="27" height="27" viewBox="0 0 27 27" fill="none" xmlns="http://www.w3.org/2000/svg">
<path fill-rule="evenodd" clip-rule="evenodd" d="M10.5494 1.04858C12.2681 -0.349525 14.732 -0.349527 16.4507 1.04858L16.7674 1.3062L17.1704 1.24144C19.3579 0.889975 21.4917 2.12195 22.281 4.19207L22.4264 4.57352L22.8079 4.71897C24.878 5.50834 26.11 7.64217 25.7586 9.82964L25.6938 10.2327L25.9515 10.5494C27.3495 12.2681 27.3495 14.732 25.9515 16.4507L25.6938 16.7674L25.7586 17.1704C26.11 19.3579 24.878 21.4917 22.8079 22.281L22.4264 22.4264L22.281 22.8079C21.4917 24.878 19.3579 26.11 17.1704 25.7586L16.7674 25.6938L16.4507 25.9515C14.732 27.3495 12.2681 27.3495 10.5494 25.9515L10.2327 25.6938L9.82964 25.7586C7.64217 26.11 5.50834 24.878 4.71897 22.8079L4.57352 22.4264L4.19207 22.281C2.12195 21.4917 0.889975 19.3579 1.24144 17.1704L1.3062 16.7674L1.04858 16.4507C-0.349527 14.732 -0.349525 12.2681 1.04858 10.5494L1.3062 10.2327L1.24144 9.82964C0.889975 7.64217 2.12195 5.50834 4.19207 4.71897L4.57352 4.57352L4.71897 4.19207C5.50834 2.12195 7.64217 0.889975 9.82964 1.24144L10.2327 1.3062L10.5494 1.04858ZM19.3442 9.70137C19.9091 9.13651 19.9091 8.22067 19.3442 7.65581C18.7794 7.09095 17.8635 7.09095 17.2987 7.65581L7.65581 17.2987C7.09095 17.8635 7.09095 18.7794 7.65581 19.3442C8.22067 19.9091 9.13651 19.9091 9.70137 19.3442L19.3442 9.70137ZM7.7143 9.64287C7.7143 8.57776 8.57776 7.7143 9.64287 7.7143C10.708 7.7143 11.5714 8.57776 11.5714 9.64287C11.5714 10.708 10.708 11.5714 9.64287 11.5714C8.57776 11.5714 7.7143 10.708 7.7143 9.64287ZM17.3572 15.4286C16.292 15.4286 15.4286 16.292 15.4286 17.3572C15.4286 18.4223 16.292 19.2857 17.3572 19.2857C18.4223 19.2857 19.2857 18.4223 19.2857 17.3572C19.2857 16.292 18.4223 15.4286 17.3572 15.4286Z" fill="white"/>
</svg>
