<svg width="30" height="25" viewBox="0 0 30 25" fill="none" xmlns="http://www.w3.org/2000/svg">
<path fill-rule="evenodd" clip-rule="evenodd" d="M13.4848 0.610189C14.3216 -0.203396 15.6784 -0.203396 16.5153 0.610189L19.2857 3.30373V2.08333C19.2857 1.50804 19.7654 1.04167 20.3572 1.04167H24.6429C25.2345 1.04167 25.7143 1.50804 25.7143 2.08333V9.55373L29.3724 13.1102C30.2092 13.9238 30.2092 15.2429 29.3724 16.0565C28.5356 16.8701 27.1788 16.8701 26.342 16.0565L25.7143 15.4463V22.9167C25.7143 24.0673 24.755 25 23.5715 25H17.1429V18.75C17.1429 17.5994 16.1835 16.6667 15 16.6667C13.8166 16.6667 12.8572 17.5994 12.8572 18.75V25H6.42858C5.24512 25 4.28572 24.0673 4.28572 22.9167V15.4463L3.6581 16.0565C2.82125 16.8701 1.46447 16.8701 0.627629 16.0565C-0.20921 15.2429 -0.20921 13.9238 0.627629 13.1102L13.4848 0.610189Z" fill="white"/>
</svg>
