<svg width="28" height="29" viewBox="0 0 28 29" fill="none" xmlns="http://www.w3.org/2000/svg">
<path d="M8.66667 2.66302L26 2.66441M8.66667 14.2015L26 14.2031M8.66667 25.74L26 25.7415M2.66667 2.66173H2.68M2.66667 14.2002H2.68M2.66667 25.7387H2.68M3.33333 2.66173C3.33333 3.19277 3.03485 3.62327 2.66667 3.62327C2.29848 3.62327 2 3.19277 2 2.66173C2 2.1307 2.29848 1.7002 2.66667 1.7002C3.03485 1.7002 3.33333 2.1307 3.33333 2.66173ZM3.33333 14.2002C3.33333 14.7312 3.03485 15.1617 2.66667 15.1617C2.29848 15.1617 2 14.7312 2 14.2002C2 13.6692 2.29848 13.2387 2.66667 13.2387C3.03485 13.2387 3.33333 13.6692 3.33333 14.2002ZM3.33333 25.7387C3.33333 26.2696 3.03485 26.7002 2.66667 26.7002C2.29848 26.7002 2 26.2696 2 25.7387C2 25.2077 2.29848 24.7771 2.66667 24.7771C3.03485 24.7771 3.33333 25.2077 3.33333 25.7387Z" stroke="white" stroke-width="3" stroke-linecap="round" stroke-linejoin="round"/>
</svg>
