<svg width="24" height="27" viewBox="0 0 24 27" fill="none" xmlns="http://www.w3.org/2000/svg">
<path d="M9.25 13.7002L14.75 19.0335M14.75 13.7002L9.25 19.0335M20.25 5.7002L19.1488 21.7174C19.0524 23.1202 19.0041 23.8217 18.6917 24.3535C18.4166 24.8218 18.0016 25.1982 17.5015 25.4333C16.9335 25.7002 16.2085 25.7002 14.7585 25.7002H9.24143C7.7915 25.7002 7.06653 25.7002 6.49847 25.4333C5.99836 25.1982 5.58341 24.8218 5.30831 24.3535C4.99585 23.8217 4.94762 23.1202 4.85118 21.7174L3.75 5.7002M1 5.7002H23M17.5 5.7002L17.1279 4.61762C16.7673 3.56853 16.5869 3.04398 16.2525 2.65617C15.9571 2.3137 15.5779 2.04862 15.1494 1.88524C14.6642 1.7002 14.0941 1.7002 12.9537 1.7002H11.0463C9.90588 1.7002 9.3358 1.7002 8.85058 1.88524C8.42214 2.04862 8.04286 2.3137 7.74752 2.65617C7.41307 3.04398 7.23277 3.56853 6.87213 4.61762L6.5 5.7002" stroke="#FF3737" stroke-opacity="0.55" stroke-width="2" stroke-linecap="round" stroke-linejoin="round"/>
</svg>
