<svg width="27" height="27" viewBox="0 0 27 27" fill="none" xmlns="http://www.w3.org/2000/svg">
<path fill-rule="evenodd" clip-rule="evenodd" d="M5.24309 0C4.02792 0 2.92366 0.706542 2.41444 1.80985L0.10488 6.81391C0.038448 6.94986 0.000839053 7.1025 1.45149e-05 7.26381L0 7.26923V8.30769C0 11.1753 2.32468 13.5 5.19231 13.5C6.89082 13.5 8.39885 12.6845 9.34615 11.4236C10.2935 12.6845 11.8015 13.5 13.5 13.5C15.1985 13.5 16.7065 12.6845 17.6538 11.4236C18.6012 12.6845 20.1092 13.5 21.8077 13.5C24.6753 13.5 27 11.1753 27 8.30769V7.27224L26.9996 7.24323C26.9958 7.08956 26.9587 6.94417 26.8951 6.81405L24.5856 1.80985C24.0763 0.706542 22.972 0 21.757 0H5.24309ZM1.03846 14.8972C2.24069 15.6566 3.66517 16.0961 5.19231 16.0961C6.7198 16.0961 8.14463 15.6554 9.34615 14.8966C10.5477 15.6554 11.9725 16.0961 13.5 16.0961C15.0275 16.0961 16.4523 15.6554 17.6538 14.8966C18.8554 15.6554 20.2801 16.0961 21.8077 16.0961C23.3349 16.0961 24.7592 15.6566 25.9615 14.8972V24.9231C25.9615 25.4739 25.7426 26.0022 25.3532 26.3917C24.9638 26.7811 24.4354 27 23.8846 27H17.6538V22.911C17.6538 20.617 15.7941 18.7572 13.5 18.7572C11.2059 18.7572 9.34615 20.617 9.34615 22.911V27H3.11538C2.56454 27 2.03628 26.7811 1.64677 26.3917C1.25729 26.0022 1.03846 25.4739 1.03846 24.9231V14.8972Z" fill="white"/>
</svg>
