<svg width="32" height="32" viewBox="0 0 32 32" fill="none" xmlns="http://www.w3.org/2000/svg">
<path d="M26.9788 18.262L25.5193 15.8336C25.1963 15.304 24.9122 14.2836 24.9122 13.6636V11.2482C24.9122 6.55944 21.1018 2.74902 16.4259 2.74902C11.7372 2.76194 7.92679 6.55944 7.92679 11.2482V13.6507C7.92679 14.2707 7.64262 15.2911 7.33262 15.8207L5.87304 18.249C5.31762 19.192 5.18846 20.264 5.53721 21.194C5.88596 22.137 6.67387 22.8861 7.70721 23.222C9.10221 23.687 10.5101 24.0228 11.9439 24.2682C12.086 24.294 12.228 24.307 12.3701 24.3328C12.551 24.3586 12.7447 24.3845 12.9385 24.4103C13.2743 24.462 13.6101 24.5007 13.9588 24.5266C14.7726 24.6041 15.5993 24.6428 16.4259 24.6428C17.2397 24.6428 18.0534 24.6041 18.8543 24.5266C19.1513 24.5007 19.4484 24.4749 19.7326 24.4361C19.9651 24.4103 20.1976 24.3845 20.4301 24.3457C20.5722 24.3328 20.7143 24.307 20.8563 24.2811C22.303 24.0486 23.7367 23.687 25.1317 23.222C26.1263 22.8861 26.8884 22.137 27.2501 21.1811C27.6118 20.2124 27.5084 19.1532 26.9788 18.262ZM17.3688 13.0178C17.3688 13.5603 16.9297 13.9995 16.3872 13.9995C15.8447 13.9995 15.4055 13.5603 15.4055 13.0178V9.01361C15.4055 8.47111 15.8447 8.03194 16.3872 8.03194C16.9297 8.03194 17.3688 8.47111 17.3688 9.01361V13.0178Z" fill="#DDDDDD"/>
<path d="M20.0557 25.9465C19.5132 27.4448 18.0795 28.5169 16.4003 28.5169C15.3799 28.5169 14.3724 28.1036 13.662 27.3673C13.2486 26.9798 12.9386 26.4632 12.7578 25.9336C12.9257 25.9594 13.0936 25.9723 13.2745 25.9982C13.5716 26.0369 13.8816 26.0757 14.1916 26.1015C14.9278 26.1661 15.677 26.2048 16.4262 26.2048C17.1624 26.2048 17.8987 26.1661 18.622 26.1015C18.8932 26.0757 19.1645 26.0628 19.4228 26.024C19.6295 25.9982 19.8362 25.9723 20.0557 25.9465Z" fill="#DDDDDD"/>
</svg>
