<svg width="28" height="28" viewBox="0 0 28 28" fill="none" xmlns="http://www.w3.org/2000/svg">
<path d="M10.625 5.51707C11.6505 5.19089 12.7742 5 14 5C18.7046 5 21.9065 7.81201 23.8157 10.2924C24.7719 11.5346 25.25 12.1557 25.25 14C25.25 15.8443 24.7719 16.4654 23.8157 17.7077C21.9065 20.188 18.7046 23 14 23C9.29537 23 6.09345 20.188 4.18425 17.7077C3.22808 16.4654 2.75 15.8443 2.75 14C2.75 12.1557 3.22808 11.5346 4.18425 10.2924C4.72563 9.58903 5.37095 8.85903 6.125 8.17404" stroke="white" stroke-width="2" stroke-linecap="round"/>
<path d="M17.375 14C17.375 15.864 15.864 17.375 14 17.375C12.136 17.375 10.625 15.864 10.625 14C10.625 12.136 12.136 10.625 14 10.625C15.864 10.625 17.375 12.136 17.375 14Z" stroke="white" stroke-width="2"/>
</svg>
