<svg width="121" height="25" viewBox="0 0 121 25" fill="none" xmlns="http://www.w3.org/2000/svg">
<path d="M12.5 0.200195L15.674 7.8315L23.9127 8.49199L17.6357 13.8689L19.5534 21.9084L12.5 17.6002L5.44658 21.9084L7.3643 13.8689L1.08732 8.49199L9.32596 7.8315L12.5 0.200195Z" fill="#C6C6C6"/>
<path d="M36.5 0.200195L39.674 7.8315L47.9127 8.49199L41.6357 13.8689L43.5534 21.9084L36.5 17.6002L29.4466 21.9084L31.3643 13.8689L25.0873 8.49199L33.326 7.8315L36.5 0.200195Z" fill="#C6C6C6"/>
<path d="M60.5 0.200195L63.674 7.8315L71.9127 8.49199L65.6357 13.8689L67.5534 21.9084L60.5 17.6002L53.4466 21.9084L55.3643 13.8689L49.0873 8.49199L57.326 7.8315L60.5 0.200195Z" fill="#C6C6C6"/>
<path d="M84.5 0.200195L87.674 7.8315L95.9127 8.49199L89.6357 13.8689L91.5534 21.9084L84.5 17.6002L77.4466 21.9084L79.3643 13.8689L73.0873 8.49199L81.326 7.8315L84.5 0.200195Z" fill="#C6C6C6"/>
<path d="M108.5 2.80416L110.751 8.21553L110.985 8.7795L111.594 8.82831L117.436 9.29666L112.985 13.1094L112.521 13.5068L112.663 14.1009L114.023 19.8018L109.021 16.7468L108.5 16.4284L107.979 16.7468L102.977 19.8018L104.337 14.1009L104.479 13.5068L104.015 13.1094L99.5638 9.29666L105.406 8.82831L106.015 8.7795L106.249 8.21553L108.5 2.80416Z" stroke="#C6C6C6" stroke-width="2"/>
</svg>
