<svg width="28" height="24" viewBox="0 0 28 24" fill="none" xmlns="http://www.w3.org/2000/svg">
<path fill-rule="evenodd" clip-rule="evenodd" d="M7 0C3.134 0 0 3.134 0 7V21C0 21.7956 0.31607 22.5588 0.87868 23.1214C1.44129 23.684 2.20434 24 3 24H22C22.7956 24 23.5588 23.684 24.1214 23.1214C24.684 22.5588 25 21.7956 25 21V20H20C18.067 20 16.5 18.433 16.5 16.5V13.5C16.5 11.567 18.067 10 20 10H25V9C25 8.20434 24.684 7.44128 24.1214 6.87868C23.5588 6.31608 22.7956 6 22 6H8C7.30964 6 6.75 5.44036 6.75 4.75C6.75 4.05964 7.30964 3.5 8 3.5H21V1C21 0.44772 20.5522 0 20 0H7ZM20 12.5H27C27.5522 12.5 28 12.9477 28 13.5V16.5C28 17.0523 27.5522 17.5 27 17.5H20C19.4477 17.5 19 17.0523 19 16.5V13.5C19 12.9477 19.4477 12.5 20 12.5Z" fill="white"/>
</svg>
