<svg width="11" height="19" viewBox="0 0 11 19" fill="none" xmlns="http://www.w3.org/2000/svg">
<path d="M10.2099 10.411C10.3037 10.318 10.3781 10.2074 10.4288 10.0856C10.4796 9.9637 10.5057 9.833 10.5057 9.70099C10.5057 9.56898 10.4796 9.43827 10.4288 9.31641C10.3781 9.19455 10.3037 9.08395 10.2099 8.99099L2.20994 0.990988C2.11698 0.897259 2.00638 0.822863 1.88452 0.772095C1.76266 0.721327 1.63195 0.695189 1.49994 0.695189C1.36793 0.695189 1.23722 0.721327 1.11536 0.772095C0.993503 0.822863 0.882902 0.897259 0.789939 0.990988C0.696211 1.08395 0.621816 1.19455 0.571048 1.31641C0.520279 1.43827 0.494141 1.56898 0.494141 1.70099C0.494141 1.833 0.520279 1.96371 0.571048 2.08556C0.621816 2.20742 0.696211 2.31802 0.789939 2.41099L8.08994 9.70099L0.789939 16.991C0.601635 17.1793 0.495847 17.4347 0.495847 17.701C0.495847 17.9673 0.601635 18.2227 0.789939 18.411C0.978243 18.5993 1.23364 18.7051 1.49994 18.7051C1.76624 18.7051 2.02164 18.5993 2.20994 18.411L10.2099 10.411Z" fill="white"/>
</svg>
