<svg width="20" height="20" viewBox="0 0 20 20" fill="none" xmlns="http://www.w3.org/2000/svg">
<path d="M0.000220768 9.70097C0.000745768 10.2187 0.420896 10.638 0.938658 10.6375C1.45642 10.637 1.87575 10.2168 1.87522 9.69909L0.000220768 9.70097ZM6.17522 1.61622L5.80595 0.754519L5.80477 0.755019L6.17522 1.61622ZM11.0764 1.11622L11.2671 0.198307L11.2642 0.197694L11.0764 1.11622ZM16.6492 7.45897C16.7922 7.95659 17.3116 8.24397 17.8092 8.10097C18.3068 7.95797 18.5943 7.43859 18.4512 6.94099L16.6492 7.45897ZM16.6428 6.96417C16.5126 7.46534 16.8133 7.97709 17.3144 8.10734C17.8156 8.23759 18.3273 7.93684 18.4576 7.43572L16.6428 6.96417ZM19.3451 4.02078C19.4753 3.51966 19.1747 3.00784 18.6736 2.87762C18.1724 2.74738 17.6606 3.04804 17.5303 3.54917L19.3451 4.02078ZM17.3006 8.10359C17.7996 8.24147 18.3159 7.94872 18.4538 7.44972C18.5918 6.95061 18.2989 6.43424 17.7999 6.29634L17.3006 8.10359ZM14.4887 5.38134C13.9896 5.24343 13.4732 5.53621 13.3353 6.03527C13.1974 6.53433 13.4902 7.05071 13.9893 7.18861L14.4887 5.38134ZM19.3752 9.69909C19.3747 9.18122 18.9546 8.76197 18.4368 8.76247C17.9191 8.76297 17.4997 9.18309 17.5002 9.70097L19.3752 9.69909ZM8.29895 18.2837L8.10832 19.2016L8.11132 19.2022L8.29895 18.2837ZM2.72625 11.941C2.58321 11.4433 2.06386 11.156 1.56625 11.299C1.06862 11.442 0.781171 11.9613 0.924208 12.459L2.72625 11.941ZM2.73258 12.4357C2.86282 11.9347 2.56216 11.4228 2.06103 11.2926C1.55991 11.1623 1.0481 11.4631 0.917871 11.9642L2.73258 12.4357ZM0.0303706 15.3792C-0.0998669 15.8803 0.200796 16.3921 0.701921 16.5223C1.20303 16.6526 1.71485 16.3518 1.84508 15.8507L0.0303706 15.3792ZM2.07492 11.2963C1.57586 11.1585 1.0595 11.4512 0.921596 11.9502C0.783683 12.4493 1.07646 12.9657 1.57552 13.1036L2.07492 11.2963ZM4.88677 14.0186C5.38583 14.1565 5.90221 13.8637 6.04011 13.3647C6.17802 12.8656 5.88525 12.3492 5.38617 12.2113L4.88677 14.0186ZM1.87522 9.69909C1.87368 8.15534 2.31823 6.64411 3.1554 5.34714L1.58006 4.33031C0.546933 5.93087 -0.00167923 7.79585 0.000220768 9.70097L1.87522 9.69909ZM3.1554 5.34714C3.97491 4.07499 5.15558 3.07539 6.54568 2.47742L5.80477 0.755019C4.07211 1.50034 2.60151 2.74467 1.58006 4.33031L3.1554 5.34714ZM6.54451 2.47793C7.9137 1.89117 9.42932 1.73654 10.8888 2.03474L11.2642 0.197694C9.43045 -0.176956 7.5262 0.0173194 5.80595 0.754519L6.54451 2.47793ZM10.8858 2.03413C12.3568 2.33962 13.7013 3.08159 14.7441 4.16314L16.0939 2.86179C14.7894 1.50873 13.1073 0.580494 11.2671 0.198307L10.8858 2.03413ZM14.7441 4.16314C15.6388 5.08918 16.2934 6.22137 16.6492 7.45897L18.4512 6.94099C18.0108 5.40859 17.2018 4.00842 16.0939 2.86179L14.7441 4.16314ZM18.4576 7.43572L19.3451 4.02078L17.5303 3.54917L16.6428 6.96417L18.4576 7.43572ZM17.7999 6.29634L14.4887 5.38134L13.9893 7.18861L17.3006 8.10359L17.7999 6.29634ZM17.5002 9.70097C17.5018 11.2446 17.0572 12.7558 16.2201 14.0528L17.7954 15.0696C18.8286 13.4691 19.3771 11.6041 19.3752 9.69909L17.5002 9.70097ZM16.2201 14.0528C15.4006 15.3251 14.2198 16.3246 12.8298 16.9225L13.5696 18.6455C15.3022 17.9001 16.7741 16.6552 17.7954 15.0696L16.2201 14.0528ZM12.8298 16.9225C11.4607 17.5092 9.94607 17.6633 8.4867 17.3652L8.11132 19.2022C9.94495 19.5768 11.8493 19.3826 13.5696 18.6455L12.8298 16.9225ZM8.48957 17.3658C7.01869 17.0603 5.67408 16.3183 4.63141 15.2368L3.28155 16.5381C4.58598 17.8912 6.26815 18.8195 8.10832 19.2016L8.48957 17.3658ZM4.63141 15.2368C3.73662 14.3107 3.08197 13.1786 2.72625 11.941L0.924208 12.459C1.36467 13.9913 2.17362 15.3915 3.28155 16.5381L4.63141 15.2368ZM0.917871 11.9642L0.0303706 15.3792L1.84508 15.8507L2.73258 12.4357L0.917871 11.9642ZM1.57552 13.1036L4.88677 14.0186L5.38617 12.2113L2.07492 11.2963L1.57552 13.1036Z" fill="#979494"/>
</svg>
