<svg width="21" height="19" viewBox="0 0 21 19" fill="none" xmlns="http://www.w3.org/2000/svg">
<path d="M19.7158 10.411C19.8095 10.318 19.8839 10.2074 19.9347 10.0856C19.9855 9.9637 20.0116 9.833 20.0116 9.70099C20.0116 9.56898 19.9855 9.43827 19.9347 9.31641C19.8839 9.19455 19.8095 9.08395 19.7158 8.99099L11.7158 0.990988C11.6228 0.897259 11.5122 0.822863 11.3904 0.772095C11.2685 0.721327 11.1378 0.695189 11.0058 0.695189C10.8738 0.695189 10.7431 0.721327 10.6212 0.772095C10.4994 0.822863 10.3888 0.897259 10.2958 0.990988C10.2021 1.08395 10.1277 1.19455 10.0769 1.31641C10.0261 1.43827 10 1.56898 10 1.70099C10 1.833 10.0261 1.96371 10.0769 2.08556C10.1277 2.20742 10.2021 2.31802 10.2958 2.41099L17.5958 9.70099L10.2958 16.991C10.1075 17.1793 10.0017 17.4347 10.0017 17.701C10.0017 17.9673 10.1075 18.2227 10.2958 18.411C10.4841 18.5993 10.7395 18.7051 11.0058 18.7051C11.2721 18.7051 11.5275 18.5993 11.7158 18.411L19.7158 10.411Z" fill="white"/>
</svg>
