<svg width="11" height="19" viewBox="0 0 11 19" fill="none" xmlns="http://www.w3.org/2000/svg">
<path d="M0.790062 8.9894C0.696334 9.08237 0.621938 9.19297 0.571169 9.31483C0.5204 9.43669 0.494263 9.56739 0.494263 9.6994C0.494263 9.83142 0.5204 9.96212 0.571169 10.084C0.621938 10.2058 0.696334 10.3164 0.790062 10.4094L8.79006 18.4094C8.88302 18.5031 8.99362 18.5775 9.11548 18.6283C9.23734 18.6791 9.36805 18.7052 9.50006 18.7052C9.63207 18.7052 9.76278 18.6791 9.88464 18.6283C10.0065 18.5775 10.1171 18.5031 10.2101 18.4094C10.3038 18.3164 10.3782 18.2058 10.429 18.084C10.4797 17.9621 10.5059 17.8314 10.5059 17.6994C10.5059 17.5674 10.4797 17.4367 10.429 17.3148C10.3782 17.193 10.3038 17.0824 10.2101 16.9894L2.91006 9.6994L10.2101 2.4094C10.3984 2.2211 10.5042 1.96571 10.5042 1.6994C10.5042 1.4331 10.3984 1.17771 10.2101 0.989404C10.0218 0.8011 9.76636 0.695313 9.50006 0.695312C9.23376 0.695312 8.97836 0.8011 8.79006 0.989404L0.790062 8.9894Z" fill="white"/>
</svg>
