<svg width="18" height="11" viewBox="0 0 18 11" fill="none" xmlns="http://www.w3.org/2000/svg">
<path d="M8.28433 9.91013C8.37729 10.0039 8.48789 10.0783 8.60975 10.129C8.73161 10.1798 8.86231 10.2059 8.99433 10.2059C9.12634 10.2059 9.25704 10.1798 9.3789 10.129C9.50076 10.0783 9.61136 10.0039 9.70433 9.91013L17.7043 1.91013C17.7981 1.81717 17.8724 1.70657 17.9232 1.58471C17.974 1.46285 18.0001 1.33215 18.0001 1.20013C18.0001 1.06812 17.974 0.937417 17.9232 0.815557C17.8724 0.693698 17.7981 0.583097 17.7043 0.490134C17.6114 0.396406 17.5008 0.322012 17.3789 0.271243C17.257 0.220474 17.1263 0.194336 16.9943 0.194336C16.8623 0.194336 16.7316 0.220474 16.6097 0.271243C16.4879 0.322012 16.3773 0.396406 16.2843 0.490134L8.99433 7.79013L1.70433 0.490134C1.51602 0.301831 1.26063 0.196043 0.994326 0.196043C0.728024 0.196043 0.47263 0.301831 0.284326 0.490134C0.0960221 0.678438 -0.00976562 0.933833 -0.00976563 1.20013C-0.00976563 1.46644 0.0960221 1.72183 0.284326 1.91013L8.28433 9.91013Z" fill="white"/>
</svg>
